<!-- Generator: Adobe Illustrator 21.1.0, SVG Export Plug-In  -->
<svg version="1.1"
	 xmlns="http://www.w3.org/2000/svg" xmlns:xlink="http://www.w3.org/1999/xlink" xmlns:a="http://ns.adobe.com/AdobeSVGViewerExtensions/3.0/"
	 x="0px" y="0px" width="546.506px" height="313.604px" viewBox="0 0 546.506 313.604"
	 style="enable-background:new 0 0 546.506 313.604;" xml:space="preserve">
<style type="text/css">
	.st0{fill:#830B0D;}
</style>
<defs>
</defs>
<g>
	<path class="st0" d="M38.749,166.063c0.176-24.69-0.856-38.914-3.094-42.666l-1.199-2.011l-5.385,1.939l-1.452,2.137
		c1.119,27.675-0.384,56.298,9.488,125.868c0.057,2.902,3.961,3.008,3.961,3.008s2.482-1.458,3.743-2.561
		c1.261-1.103,0.495-4.065,0.495-4.065L38.749,166.063z"/>
	<path class="st0" d="M80.851,155.188c0,0,27.849-45.516-26.351-58.392C0.3,83.919,0,136.322,0,136.322
		c0.145,30.247,18.566,8.983,18.566,8.983s-27.25-35.035,17.967-36.832c45.217-1.797,36.832,35.335,36.832,35.335l-6.588,14.673
		l1.497,6.588c0,0,21.261,5.69,33.538,17.967s-11.379,22.159-18.266,32.34s9.882,4.791,9.882,4.791
		C154.814,182.737,80.851,155.188,80.851,155.188z"/>
	<path class="st0" d="M149.55,109.603h2.669c1.525,0,5.212-0.89,11.059-2.669v-5.466h-5.593c-6.695,3.305-10.041,5.382-10.041,6.229
		C147.644,108.968,148.28,109.603,149.55,109.603z"/>
	<path class="st0" d="M142.687,298.225c47.028-109.479,70.542-164.727,70.542-165.743h202.347l2.669,1.906h3.559
		c11.1,0,16.65-0.931,16.65-2.796v-2.669l-4.575-1.017h-217.98c5.507-12.71,8.262-20.336,8.262-22.878
		c0-1.017-0.594-1.652-1.779-1.907h-2.797l-1.779,1.017c-6.948,15.846-10.931,23.768-11.947,23.768h-55.671
		c-3.051,0-4.913,0.89-5.593,2.669c0,1.271,0.594,1.907,1.779,1.907h58.722l-11.29,26.463c-4.273,0.753-11.987,4.384-23.155,10.905
		c-3.05-5.93-4.575-9.616-4.575-11.058c1.525-2.371,2.753-3.559,3.686-3.559c0,2.373,0.551,3.559,1.652,3.559h4.576
		c1.271,0,1.906-0.635,1.906-1.906v-5.338c0-1.525-1.823-2.457-5.465-2.796c-7.118,0-12.031,3.348-14.744,10.041
		c0,0.476,0.058,0.997,0.162,1.552c-9.061,6.745-17.384,12.088-24.947,15.988v-4.576c6.101-14.489,9.151-22.666,9.151-24.531v-1.017
		c-0.848-1.78-1.737-2.669-2.669-2.669h-3.559l-2.924,1.78c0,0.594,0.338,1.525,1.017,2.796
		c-6.778,15.252-10.168,24.998-10.168,29.234c0,3.645,1.865,5.466,5.593,5.466h2.796c9.131-2.745,18.456-8.257,27.977-16.531
		c1.226,2.36,2.915,5.073,5.07,8.143v0.763c-9.829,7.117-14.744,13.219-14.744,18.303c1.525,2.542,2.755,3.812,3.687,3.812h7.371
		c9.66-3.388,14.49-8.896,14.49-16.523l-0.763-6.354c6.601-3.447,11.767-6.208,15.511-8.291l-61.776,144.8
		c0,1.439,1.524,2.329,4.575,2.669c3.559,0,7.245-4.238,11.058-12.71C144.593,299.115,143.958,298.225,142.687,298.225z
		 M159.591,191.839v-1.018c3.982-5.421,6.736-8.472,8.262-9.151C167.853,184.892,165.098,188.28,159.591,191.839z"/>
	<path class="st0" d="M522.385,39.456c0,0,18.184-29.719-17.206-38.127s-35.585,25.809-35.585,25.809s-14.078-9.972-27.177,4.301
		c-12.029,13.106,10.066,30.827,13.759,33.636l2.703,2.317l-5.219,12.548c0,0,3.523,0.824,8.723,2.394
		c-8.969,18.283-20.562,44.183-34.775,77.687c-0.113,0.058-0.227,0.104-0.339,0.168c-6.44,6.101-12.202,10.084-17.286,11.948
		c1.779-8.135,2.669-12.457,2.669-12.965c-1.017-6.101-3.136-9.151-6.354-9.151l-5.466,1.017
		c-9.151,6.949-13.727,15.761-13.727,26.437v1.018c0,3.136,1.188,5.296,3.559,6.481h8.262c4.913-3.219,7.372-5.974,7.372-8.262
		c1.621,0,3.223-0.146,4.807-0.411c0.767,1.955,2.457,4.959,5.106,9.055c-0.958,2.277-1.887,4.502-2.803,6.703
		c-12.976-1.55-26.123-2.377-39.438-2.486c9.006-21.724,13.515-35.551,13.515-41.459c-0.425-1.271-1.95-2.542-4.575-3.813
		c-6.609,0-13.686,5.211-21.227,15.634c0-2.371-0.552-3.559-1.652-3.559h-1.906c-1.496,0-2.972,1.239-4.429,3.678
		c-0.091,0.048-0.183,0.084-0.273,0.135c-6.44,6.101-12.202,10.084-17.286,11.948c1.779-8.135,2.669-12.457,2.669-12.965
		c-1.017-6.101-3.136-9.151-6.354-9.151l-5.466,1.017c-9.151,6.949-13.727,15.761-13.727,26.437v1.018
		c0,3.136,1.188,5.296,3.559,6.481h8.262c4.913-3.219,7.372-5.974,7.372-8.262c5.833,0,11.426-1.73,16.783-5.163
		c-0.727,2.549-1.45,5.404-2.167,8.596c1.017,1.779,1.95,2.669,2.796,2.669h6.355c8.218-13.557,15.844-23.896,22.878-31.014
		c0,2.264-4.708,14.868-14.114,37.796c-27.934,0.413-52.506,3.745-73.713,9.995l20.972-43.978c-0.934-1.78-1.823-2.669-2.669-2.669
		h-2.669c-3.729,2.627-5.593,4.449-5.593,5.465c-2.288-1.863-4.448-2.796-6.482-2.796h-5.465
		c-6.542,3.589-11.312,7.448-14.347,11.573c-3.169,2.271-6.145,3.936-8.913,4.951c1.779-8.135,2.669-12.457,2.669-12.965
		c-1.017-6.101-3.136-9.151-6.354-9.151l-5.466,1.017c-2.821,2.142-5.203,4.462-7.154,6.957c-2.499,0.309-4.188,1.458-5.048,3.465
		c-8.135,9.151-13.008,13.728-14.617,13.728v-0.763c6.693-15.082,10.041-23.344,10.041-24.786v-0.89
		c-8.22-3.728-13.431-6.778-15.633-9.151h-3.56c-2.287,0.594-10.251,18.303-23.895,53.129c0,1.188,0.635,1.779,1.906,1.779h4.575
		c1.78-1.694,8.517-16.65,20.21-44.868c2.796,0,5.549,0.34,8.262,1.017c-6.78,13.727-10.169,21.905-10.169,24.531
		c0,3.729,1.863,5.592,5.593,5.592h3.559c3.352,0,7.493-2.399,12.413-7.168c-0.139,1.26-0.21,2.547-0.21,3.864v1.018
		c0,3.136,1.188,5.296,3.559,6.481h8.262c4.913-3.219,7.372-5.974,7.372-8.262c3.042,0,6.02-0.469,8.933-1.403
		c-0.193,1.046-0.29,2.107-0.29,3.183v1.906c1.525,2.373,2.796,3.559,3.812,3.559h6.229c3.476,0,7.159-2.16,11.058-6.482h1.017
		c-8.049,15.507-12.074,23.769-12.074,24.785c-7.201,3.73-15.38,9.533-24.531,17.413c-23.387,26.775-35.588,48.427-36.605,64.95
		c0,3.728,2.078,5.593,6.229,5.593h1.906c10.085,0,29.913-28.09,59.484-84.27c26.145-7.505,51.713-11.428,76.706-11.786
		c0.68,0.993,1.337,1.49,1.97,1.49h5.593v-1.017c0.073-0.174,0.14-0.336,0.213-0.509h4.235c13.628,0.888,25.31,1.844,35.061,2.869
		c-18.792,45.536-28.197,73.993-28.197,85.341c0,3.22,1.864,5.084,5.592,5.593c4.576,0,9.787-5.551,15.634-16.65
		c14.575-28.217,21.861-51.35,21.861-69.398l-0.379-3.105c3.923,0.569,7.327,1.157,10.213,1.763
		c-17.822,43.475-26.739,70.747-26.739,81.799c0,3.22,1.864,5.084,5.592,5.593c4.576,0,9.787-5.551,15.634-16.65
		c13.768-26.654,21.023-48.766,21.786-66.348h0.966l4.575-0.763v-3.813c-1.938-0.496-3.881-0.971-5.827-1.433l-1.546-12.675
		l1.017-3.559c9.914,0,21.227-6.737,33.937-20.21v-1.779c0-1.1-0.636-1.736-1.906-1.907h-1.907
		c-11.185,9.831-20.04,15.932-26.564,18.303h-0.89l32.92-76.771c1.312-2.165,2.54-4.22,3.687-6.169
		c0.937,0.559,1.851,1.131,2.73,1.719c0.029-0.056-0.918-0.867-2.491-2.129c-0.246-0.198-0.507-0.405-0.782-0.624
		c-1.377-1.093-3.107-2.434-5.043-3.896c-3.883-2.932-8.567-6.324-12.813-9.089c-2.561-1.668-4.956-3.101-6.917-4.065
		c-0.449-0.221-0.876-0.418-1.275-0.586c-0.528-0.222-1.015-0.401-1.444-0.52l7.28-13.31l-12.593-6.753c0,0-0.842-0.276-2.058-0.844
		c-4.228-1.976-13.009-7.514-6.936-17.535c7.821-12.904,25.613,3.519,25.613,3.519l7.625-7.039c0,0-17.792-22.876,11.731-24.049
		c29.524-1.173,24.049,23.071,24.049,23.071l-4.302,9.581l0.978,4.301c0,0,13.882,3.715,21.898,11.731
		c8.016,8.016-7.43,14.469-11.927,21.116c-4.497,6.648,6.452,3.128,6.452,3.128C570.679,57.444,522.385,39.456,522.385,39.456z
		 M395.239,180.4h-0.89v-2.924l0.89-9.151c2.711,4.321,4.236,6.482,4.576,6.482C399.052,177.266,397.527,179.128,395.239,180.4z
		 M404.39,166.672h-0.89v-3.686h0.89V166.672z M405.407,162.096h-1.018v-3.686h1.018V162.096z M321.392,180.4h-0.89v-2.924
		l0.89-9.151c2.711,4.321,4.236,6.482,4.576,6.482C325.205,177.266,323.68,179.128,321.392,180.4z M330.543,166.672h-0.89v-3.686
		h0.89V166.672z M331.561,162.096h-1.018v-3.686h1.018V162.096z M251.359,180.4h-0.89v-2.924l0.89-9.151
		c2.711,4.321,4.236,6.482,4.576,6.482C255.172,177.266,253.647,179.128,251.359,180.4z M260.51,166.672h-0.89v-3.686h0.89V166.672z
		 M261.528,162.096h-1.018v-3.686h1.018V162.096z M280.211,178.493h-0.763c0-3.668,1.863-7.475,5.573-11.419
		c0.742-0.789,1.559-1.583,2.45-2.383c1.65-1.482,3.545-2.982,5.704-4.502c0,1.865,1.186,2.796,3.56,2.796
		C288.345,172.309,282.838,177.476,280.211,178.493z M259.239,240.774c-6.608,14.658-16.987,29.275-31.14,43.851v-1.906
		c0-5.678,4.28-16.016,12.838-31.014c7.88-14.152,18.854-26.691,32.919-37.622C273.856,216.286,268.985,225.182,259.239,240.774z
		 M418.879,200.991c0,20.928-9.151,47.409-27.454,79.439h-0.762v-0.763c5.678-26.691,14.829-53.256,27.453-79.693h0.763V200.991z
		 M420.786,176.205h-1.018l-2.294-1.721c1.737-0.709,3.45-1.588,5.14-2.636C422.009,173.289,421.401,174.739,420.786,176.205z
		 M425.251,193.677l-0.906-7.43l1.017-3.559c4.172,0,8.594-1.208,13.261-3.594c0.915,1.7,2.157,3.771,3.77,6.263
		c-1.52,3.612-2.981,7.119-4.396,10.54C433.767,195.078,429.519,194.336,425.251,193.677z M417.608,280.43h-0.762v-0.763
		c5.504-25.875,14.283-51.631,26.315-77.267c0.685,0.237,1.3,0.477,1.844,0.719C444.415,223.707,435.3,249.468,417.608,280.43z
		 M446.969,176.205h-1.018l-1.154-0.865c1.218-0.852,2.452-1.778,3.701-2.779C447.99,173.77,447.483,174.979,446.969,176.205z
		 M469.958,84.801c4.618,1.615,9.703,3.611,14.542,5.963c-8.356,17.598-18.649,40.818-30.872,69.642
		c-10.311,8.885-18.549,14.451-24.707,16.689h-0.89l32.92-76.771C464.595,94.309,467.588,89.148,469.958,84.801z"/>
	<path class="st0" d="M502.828,73.107c0,0,2.413,0.551,4.278,1.723c0.896,0.563,1.667,1.268,1.98,2.128c0,0-0.328-1.584-1.349-3.481
		c-0.951-1.766-2.517-3.791-4.97-5.075c-0.901-0.472-1.909-0.854-3.068-1.072c0,0-4.433,12.26-5.986,21.826
		c-0.332,2.045-0.535,3.969-0.532,5.621l0.369,1.097c0,0,0.139-0.535,0.4-1.453C495.084,90.427,498.522,79.175,502.828,73.107z"/>
</g>
</svg>